<?xml version="1.0" standalone="no"?>
<!DOCTYPE svg PUBLIC "-//W3C//DTD SVG 20010904//EN"
 "http://www.w3.org/TR/2001/REC-SVG-20010904/DTD/svg10.dtd">
<svg version="1.0" xmlns="http://www.w3.org/2000/svg"
 width="618.000000pt" height="618.000000pt" viewBox="0 0 618.000000 618.000000"
 preserveAspectRatio="xMidYMid meet">
<metadata>
Created by potrace 1.11, written by Peter Selinger 2001-2013
</metadata>
<g transform="translate(0.000000,618.000000) scale(0.100000,-0.100000)"
fill="#000000" stroke="none">
<path d="M2903 5295 c-102 -31 -158 -81 -320 -291 -43 -54 -62 -79 -106 -134
-78 -98 -387 -491 -516 -655 -69 -88 -130 -165 -136 -171 -5 -6 -21 -26 -35
-44 -14 -18 -45 -58 -70 -89 -25 -31 -57 -72 -72 -91 -15 -19 -104 -132 -198
-250 -176 -221 -235 -308 -313 -465 -172 -344 -218 -768 -126 -1140 91 -364
285 -633 582 -809 124 -73 302 -138 442 -160 103 -16 223 -19 782 -18 375 0
639 -4 665 -10 24 -5 52 -11 63 -14 11 -2 193 -4 406 -4 333 -1 393 1 435 16
65 22 81 30 132 72 131 105 177 299 109 453 l-25 57 97 4 c114 5 182 31 256
99 134 124 166 307 80 471 -14 27 -25 51 -23 52 2 1 23 14 48 29 114 68 185
179 194 308 10 152 -78 307 -210 372 l-41 20 33 49 c41 60 54 102 61 194 11
150 -72 300 -201 362 -98 48 -51 46 -1138 46 -830 0 -1028 2 -1028 12 0 12 29
93 50 139 11 26 216 552 374 965 37 96 71 184 77 195 32 70 59 162 59 202 0
89 -62 172 -159 216 -55 25 -167 31 -228 12z"/>
</g>
</svg>
